<!DOCTYPE svg PUBLIC "-//W3C//DTD SVG 20010904//EN" "http://www.w3.org/TR/2001/REC-SVG-20010904/DTD/svg10.dtd">

<svg version="1.0" xmlns="http://www.w3.org/2000/svg"  width="1000px" height="1000px" viewBox="0 0 5000 4999">
	
	<g transform="translate(0,4999) scale(0.1,-0.1)" fill="white">
		
		<path d="M24390 41669 c-1087 -76 -2095 -564 -2821 -1364 -642 -706 -1014 -1570 -1089 -2529 -6 -79 -10 -708 -10 -1632 l0 -1504 164 -292 c90 -161 404 -725 698 -1253 295 -528 667 -1196 828 -1485 343 -615 753 -1351 1722 -3090 388 -696 770 -1382 850 -1525 80 -143 311 -557 513 -920 202 -363 663 -1189 1023 -1835 360 -646 818 -1467 1017 -1825 199 -357 494 -886 655 -1175 161 -289 393 -705 515 -925 328 -587 341 -610 351 -608 5 1 218 118 474 261 1087 606 2044 1140 2169 1209 113 63 136 72 150 61 22 -17 301 -263 379 -335 l64 -58 -31 -160 c-82 -427 -111 -714 -118 -1171 -6 -362 3 -560 38 -834 107 -852 405 -1574 886 -2149 195 -233 533 -559 783 -754 239 -186 554 -380 810 -498 327 -150 546 -223 1201 -398 482 -129 703 -199 960 -304 662 -269 1251 -709 1820 -1357 145 -165 129 -172 153 70 38 372 41 451 41 940 -1 519 -7 641 -56 1030 -170 1350 -710 2611 -1547 3613 -889 1063 -2086 1830 -3337 2137 -365 90 -694 131 -1064 134 l-254 3 -246 250 c-135 138 -341 342 -458 454 l-212 204 -262 470 c-427 767 -2684 4817 -3784 6790 -1370 2457 -1805 3238 -1805 3241 0 2 749 4 1665 4 l1666 0 -4 2593 c-3 2781 -1 2657 -52 2971 -127 790 -459 1504 -981 2106 -124 144 -393 402 -544 523 -151 121 -389 283 -555 378 -704 402 -1553 595 -2365 538z"/> <path d="M11477 36878 c-7 -37 -30 -260 -49 -478 -9 -96 -13 -316 -12 -650 0 -446 3 -531 22 -730 82 -821 253 -1514 547 -2210 762 -1803 2306 -3216 4110 -3760 451 -136 871 -201 1324 -205 l254 -2 256 -260 c141 -144 349 -350 462 -459 l207 -199 1247 -2240 c687 -1232 1520 -2728 1853 -3325 333 -597 921 -1652 1307 -2345 386 -693 867 -1556 1069 -1917 201 -362 366 -660 366 -663 0 -3 -749 -5 -1665 -5 l-1665 0 0 -2477 c0 -1515 4 -2546 10 -2653 55 -957 407 -1827 1030 -2545 129 -148 387 -395 540 -518 222 -178 500 -357 749 -481 421 -211 912 -358 1386 -415 975 -118 1981 118 2800 656 973 640 1635 1640 1839 2778 63 346 60 266 63 1957 l4 1548 -657 1212 c-361 667 -820 1506 -1019 1863 -199 358 -1751 3143 -3450 6190 -1698 3047 -3112 5585 -3143 5640 -31 55 -56 101 -57 103 -1 1 -384 -211 -851 -471 -2067 -1152 -1934 -1080 -1952 -1066 -25 20 -307 268 -380 336 l-64 58 31 160 c52 271 91 573 111 855 13 187 13 666 0 840 -73 1001 -373 1804 -918 2460 -128 154 -476 500 -637 634 -581 483 -1057 717 -1940 956 -829 225 -1025 288 -1358 442 -573 264 -1103 675 -1606 1243 -176 200 -157 183 -164 143z"/> 		
	</g>
	
</svg>